<svg width="22" height="20" viewBox="0 0 22 20" fill="none" xmlns="http://www.w3.org/2000/svg">
<path d="M17.4185 15.6584L17.5835 15.6672C18.4009 15.7501 19.0385 16.4392 19.0386 17.2786C19.0386 18.1711 18.3142 18.8984 17.4185 18.8987H4.5835C3.68822 18.8986 2.96338 18.1739 2.96338 17.2786C2.96347 16.3833 3.68827 15.6585 4.5835 15.6584H17.4185Z" stroke="#EEAB01"/>
<path d="M11.001 0.5C12.0124 0.5 12.833 1.32061 12.833 2.33203C12.833 2.7938 12.6586 3.21431 12.377 3.53613L15.3623 8.48438L17.8428 7.03418C17.8384 6.98256 17.8359 6.93012 17.8359 6.87793C17.8362 5.86669 18.6567 5.0459 19.668 5.0459C20.6792 5.04592 21.4997 5.86671 21.5 6.87793C21.5 7.77483 20.8543 8.52006 20.0029 8.67773L18.3203 14.7705L18.2197 15.1367H3.78027L3.67969 14.7705L1.99609 8.67773C1.14514 8.51968 0.5 7.77448 0.5 6.87793C0.500263 5.86626 1.32123 5.04599 2.33398 5.0459C3.34528 5.0459 4.16575 5.8667 4.16602 6.87793C4.16602 6.93062 4.16271 6.98301 4.1582 7.03418L6.63867 8.48438L9.62402 3.53711C9.34163 3.21529 9.16895 2.79471 9.16895 2.33203C9.16899 1.32063 9.9896 0.500034 11.001 0.5Z" stroke="#EEAB01"/>
</svg>
