<svg width="33" height="34" viewBox="0 0 33 34" fill="none" xmlns="http://www.w3.org/2000/svg">
<g clip-path="url(#clip0_1_877)">
<path d="M16.5 33.0889C25.6127 33.0889 33 25.7016 33 16.5889C33 7.47617 25.6127 0.0888672 16.5 0.0888672C7.3873 0.0888672 0 7.47617 0 16.5889C0 25.7016 7.3873 33.0889 16.5 33.0889Z" fill="#DC4E41"/>
<path d="M5.74472 17.3289C5.68619 20.1678 7.64155 22.877 10.3314 23.7606C12.865 24.6118 15.9801 23.975 17.666 21.8052C18.897 20.2849 19.1767 18.258 19.0434 16.3644C16.8736 16.345 14.7039 16.3515 12.5373 16.3547C12.5338 17.1277 12.5373 17.8977 12.5406 18.6707C13.8397 18.7066 15.1392 18.6901 16.4383 18.7163C16.1104 19.8401 15.3633 20.8861 14.2294 21.292C12.0402 22.2567 9.2469 20.9964 8.55805 18.6998C7.72655 16.5006 9.08778 13.8467 11.3352 13.207C12.7288 12.7167 14.1644 13.2687 15.3568 13.9932C15.961 13.4279 16.5263 12.8237 17.0816 12.2131C15.7268 11.0795 13.9859 10.3845 12.1961 10.5372C8.68453 10.5789 5.61148 13.8208 5.74472 17.3289Z" fill="#DC4E41"/>
<path d="M23.2664 14.4045C23.26 15.051 23.2532 15.7008 23.25 16.347C22.6002 16.3534 21.954 16.3567 21.3076 16.3599C21.3076 17.0064 21.3076 17.6494 21.3076 18.2959C21.954 18.2991 22.6038 18.3023 23.25 18.3091C23.2564 18.9556 23.2564 19.6018 23.2629 20.2515C23.9062 20.2515 24.5527 20.2483 25.1989 20.2515C25.2024 19.6018 25.2053 18.9556 25.2121 18.3059C25.8583 18.3026 26.508 18.2994 27.1545 18.2962C27.1545 17.6497 27.1545 17.0067 27.1545 16.3602C26.5083 16.357 25.8586 16.3537 25.2121 16.3473C25.2086 15.7008 25.2024 15.051 25.1989 14.4048C24.5527 14.4045 23.9094 14.4045 23.2664 14.4045Z" fill="#DC4E41"/>
<path d="M5.74472 17.3282C5.61148 13.8201 8.68423 10.5782 12.1958 10.5362C13.9856 10.3835 15.7268 11.0786 17.0813 12.2121C16.5257 12.823 15.9604 13.4269 15.3565 13.9922C14.1641 13.2678 12.7285 12.7157 11.3349 13.206C9.08719 13.846 7.72596 16.4999 8.55776 18.6988C9.24661 20.9954 12.0399 22.2557 14.2291 21.291C15.3627 20.8851 16.1101 19.8392 16.438 18.7153C15.1389 18.6894 13.8394 18.7056 12.5403 18.6697C12.537 17.8967 12.5338 17.1267 12.537 16.3537C14.7036 16.3505 16.8734 16.344 19.0431 16.3635C19.1764 18.2573 18.897 20.2842 17.6657 21.8042C15.9798 23.974 12.865 24.6108 10.3311 23.7596C7.64184 22.8763 5.68619 20.1671 5.74472 17.3282Z" fill="white"/>
<path d="M23.2664 14.4045C23.9097 14.4045 24.5527 14.4045 25.1989 14.4045C25.2024 15.051 25.2086 15.7008 25.2121 16.347C25.8583 16.3534 26.508 16.3567 27.1545 16.3599C27.1545 17.0064 27.1545 17.6494 27.1545 18.2959C26.5083 18.2991 25.8586 18.3023 25.2121 18.3056C25.2056 18.9553 25.2024 19.6015 25.1989 20.2512C24.5527 20.248 23.9059 20.2512 23.2629 20.2512C23.2567 19.6015 23.2567 18.9553 23.25 18.3088C22.6038 18.302 21.954 18.2991 21.3076 18.2956C21.3076 17.6491 21.3076 17.0061 21.3076 16.3596C21.954 16.3564 22.6005 16.3531 23.25 16.3467C23.2532 15.7008 23.2597 15.051 23.2664 14.4045Z" fill="white"/>
</g>
<defs>
<clipPath id="clip0_1_877">
<rect width="33" height="33" fill="white" transform="translate(0 0.0898438)"/>
</clipPath>
</defs>
</svg>
