<svg width="115" height="39" viewBox="0 0 115 39" fill="none" xmlns="http://www.w3.org/2000/svg">
<rect width="115" height="39" rx="19.5" fill="#87E389"/>
<path d="M29.5078 25.1426V13.7676H33.0078C34.0078 13.7676 34.901 13.9941 35.6875 14.4473C36.4792 14.8952 37.0964 15.5358 37.5391 16.3691C37.9818 17.1973 38.2031 18.14 38.2031 19.1973V19.7207C38.2031 20.778 37.9844 21.7181 37.5469 22.541C37.1146 23.3639 36.5026 24.002 35.7109 24.4551C34.9193 24.9082 34.026 25.1374 33.0312 25.1426H29.5078ZM31.8516 15.666V23.2598H32.9844C33.901 23.2598 34.6016 22.9603 35.0859 22.3613C35.5703 21.7624 35.8177 20.9056 35.8281 19.791V19.1895C35.8281 18.0332 35.5885 17.1582 35.1094 16.5645C34.6302 15.9655 33.9297 15.666 33.0078 15.666H31.8516ZM43.6562 25.2988C42.4167 25.2988 41.4062 24.9186 40.625 24.1582C39.849 23.3978 39.4609 22.3848 39.4609 21.1191V20.9004C39.4609 20.0514 39.625 19.2936 39.9531 18.627C40.2812 17.9551 40.7448 17.4395 41.3438 17.0801C41.9479 16.7155 42.6354 16.5332 43.4062 16.5332C44.5625 16.5332 45.4714 16.8978 46.1328 17.627C46.7995 18.3561 47.1328 19.39 47.1328 20.7285V21.6504H41.75C41.8229 22.2025 42.0417 22.6452 42.4062 22.9785C42.776 23.3118 43.2422 23.4785 43.8047 23.4785C44.6745 23.4785 45.3542 23.1634 45.8438 22.5332L46.9531 23.7754C46.6146 24.2546 46.1562 24.6296 45.5781 24.9004C45 25.166 44.3594 25.2988 43.6562 25.2988ZM43.3984 18.3613C42.9505 18.3613 42.5859 18.5124 42.3047 18.8145C42.0286 19.1165 41.8516 19.5488 41.7734 20.1113H44.9141V19.9316C44.9036 19.4316 44.7682 19.0462 44.5078 18.7754C44.2474 18.4993 43.8776 18.3613 43.3984 18.3613ZM56.0312 20.9941C56.0312 22.2962 55.7344 23.3405 55.1406 24.127C54.5521 24.9082 53.7552 25.2988 52.75 25.2988C51.8958 25.2988 51.2057 25.002 50.6797 24.4082V28.3926H48.4219V16.6895H50.5156L50.5938 17.5176C51.1406 16.8613 51.8542 16.5332 52.7344 16.5332C53.776 16.5332 54.5859 16.9186 55.1641 17.6895C55.7422 18.4603 56.0312 19.5228 56.0312 20.877V20.9941ZM53.7734 20.8301C53.7734 20.0436 53.6328 19.4368 53.3516 19.0098C53.0755 18.5827 52.6719 18.3691 52.1406 18.3691C51.4323 18.3691 50.9453 18.64 50.6797 19.1816V22.6426C50.9557 23.1999 51.4479 23.4785 52.1562 23.4785C53.2344 23.4785 53.7734 22.5957 53.7734 20.8301ZM57.0859 20.8379C57.0859 19.9993 57.2474 19.252 57.5703 18.5957C57.8932 17.9395 58.3568 17.4316 58.9609 17.0723C59.5703 16.7129 60.276 16.5332 61.0781 16.5332C62.2188 16.5332 63.1484 16.8822 63.8672 17.5801C64.5911 18.278 64.9948 19.2259 65.0781 20.4238L65.0938 21.002C65.0938 22.2988 64.7318 23.3405 64.0078 24.127C63.2839 24.9082 62.3125 25.2988 61.0938 25.2988C59.875 25.2988 58.901 24.9082 58.1719 24.127C57.4479 23.3457 57.0859 22.2832 57.0859 20.9395V20.8379ZM59.3438 21.002C59.3438 21.804 59.4948 22.4186 59.7969 22.8457C60.099 23.2676 60.5312 23.4785 61.0938 23.4785C61.6406 23.4785 62.0677 23.2702 62.375 22.8535C62.6823 22.4316 62.8359 21.7598 62.8359 20.8379C62.8359 20.0514 62.6823 19.4421 62.375 19.0098C62.0677 18.5775 61.6354 18.3613 61.0781 18.3613C60.526 18.3613 60.099 18.5775 59.7969 19.0098C59.4948 19.4368 59.3438 20.1009 59.3438 21.002ZM71.0625 22.8066C71.0625 22.5306 70.9245 22.3145 70.6484 22.1582C70.3776 21.9967 69.9401 21.8535 69.3359 21.7285C67.3255 21.3066 66.3203 20.4525 66.3203 19.166C66.3203 18.416 66.6302 17.791 67.25 17.291C67.875 16.7858 68.6901 16.5332 69.6953 16.5332C70.7682 16.5332 71.625 16.7858 72.2656 17.291C72.9115 17.7962 73.2344 18.4525 73.2344 19.2598H70.9766C70.9766 18.9368 70.8724 18.6712 70.6641 18.4629C70.4557 18.2493 70.1302 18.1426 69.6875 18.1426C69.3073 18.1426 69.013 18.2285 68.8047 18.4004C68.5964 18.5723 68.4922 18.791 68.4922 19.0566C68.4922 19.3066 68.6094 19.5098 68.8438 19.666C69.0833 19.8171 69.4844 19.9499 70.0469 20.0645C70.6094 20.1738 71.0833 20.2988 71.4688 20.4395C72.6615 20.877 73.2578 21.6348 73.2578 22.7129C73.2578 23.4837 72.9271 24.1087 72.2656 24.5879C71.6042 25.0618 70.75 25.2988 69.7031 25.2988C68.9948 25.2988 68.3646 25.1738 67.8125 24.9238C67.2656 24.6686 66.8359 24.3223 66.5234 23.8848C66.2109 23.4421 66.0547 22.9655 66.0547 22.4551H68.1953C68.2161 22.8561 68.3646 23.1634 68.6406 23.377C68.9167 23.5905 69.2865 23.6973 69.75 23.6973C70.1823 23.6973 70.5078 23.6165 70.7266 23.4551C70.9505 23.2884 71.0625 23.0723 71.0625 22.8066ZM77.1016 25.1426H74.8359V16.6895H77.1016V25.1426ZM74.7031 14.502C74.7031 14.1634 74.8151 13.8848 75.0391 13.666C75.2682 13.4473 75.5781 13.3379 75.9688 13.3379C76.3542 13.3379 76.6615 13.4473 76.8906 13.666C77.1198 13.8848 77.2344 14.1634 77.2344 14.502C77.2344 14.8457 77.1172 15.127 76.8828 15.3457C76.6536 15.5645 76.349 15.6738 75.9688 15.6738C75.5885 15.6738 75.2812 15.5645 75.0469 15.3457C74.8177 15.127 74.7031 14.8457 74.7031 14.502ZM81.6719 14.6113V16.6895H83.1172V18.3457H81.6719V22.5645C81.6719 22.877 81.7318 23.1009 81.8516 23.2363C81.9714 23.3717 82.2005 23.4395 82.5391 23.4395C82.7891 23.4395 83.0104 23.4212 83.2031 23.3848V25.0957C82.7604 25.2311 82.3047 25.2988 81.8359 25.2988C80.2526 25.2988 79.4453 24.4993 79.4141 22.9004V18.3457H78.1797V16.6895H79.4141V14.6113H81.6719Z" fill="black"/>
</svg>
