<svg width="260" height="39" viewBox="0 0 260 39" fill="none" xmlns="http://www.w3.org/2000/svg">
<path d="M47.1328 23.4219H52.2969V25H45.1562V13.625H47.1328V23.4219ZM53.2734 20.6953C53.2734 19.8672 53.4375 19.1224 53.7656 18.4609C54.0938 17.7943 54.5547 17.2839 55.1484 16.9297C55.7422 16.5703 56.4245 16.3906 57.1953 16.3906C58.3359 16.3906 59.2604 16.7578 59.9688 17.4922C60.6823 18.2266 61.0677 19.2005 61.125 20.4141L61.1328 20.8594C61.1328 21.6927 60.9714 22.4375 60.6484 23.0938C60.3307 23.75 59.8724 24.2578 59.2734 24.6172C58.6797 24.9766 57.9922 25.1562 57.2109 25.1562C56.0182 25.1562 55.0625 24.7604 54.3438 23.9688C53.6302 23.1719 53.2734 22.112 53.2734 20.7891V20.6953ZM55.1719 20.8594C55.1719 21.7292 55.3516 22.4115 55.7109 22.9062C56.0703 23.3958 56.5703 23.6406 57.2109 23.6406C57.8516 23.6406 58.349 23.3906 58.7031 22.8906C59.0625 22.3906 59.2422 21.6589 59.2422 20.6953C59.2422 19.8411 59.0573 19.1641 58.6875 18.6641C58.3229 18.1641 57.8255 17.9141 57.1953 17.9141C56.5755 17.9141 56.0833 18.1615 55.7188 18.6562C55.3542 19.1458 55.1719 19.8802 55.1719 20.8594ZM62.4062 20.7109C62.4062 19.3984 62.7135 18.3516 63.3281 17.5703C63.9479 16.7839 64.7682 16.3906 65.7891 16.3906C66.7526 16.3906 67.5104 16.7266 68.0625 17.3984L68.1484 16.5469H69.8594V24.7422C69.8594 25.8516 69.513 26.7266 68.8203 27.3672C68.1328 28.0078 67.2031 28.3281 66.0312 28.3281C65.4115 28.3281 64.8047 28.1979 64.2109 27.9375C63.6224 27.6823 63.1745 27.3464 62.8672 26.9297L63.7656 25.7891C64.349 26.4818 65.0677 26.8281 65.9219 26.8281C66.5521 26.8281 67.0495 26.6562 67.4141 26.3125C67.7786 25.974 67.9609 25.474 67.9609 24.8125V24.2422C67.4141 24.8516 66.6849 25.1562 65.7734 25.1562C64.7839 25.1562 63.974 24.763 63.3438 23.9766C62.7188 23.1901 62.4062 22.1016 62.4062 20.7109ZM64.2969 20.875C64.2969 21.724 64.4688 22.3932 64.8125 22.8828C65.1615 23.3672 65.6432 23.6094 66.2578 23.6094C67.0234 23.6094 67.5911 23.2812 67.9609 22.625V18.9062C67.6016 18.2656 67.0391 17.9453 66.2734 17.9453C65.6484 17.9453 65.1615 18.1927 64.8125 18.6875C64.4688 19.1823 64.2969 19.9115 64.2969 20.875ZM78.0703 25H76.1016V13.625H78.0703V25ZM82.0781 16.5469L82.1328 17.5234C82.7578 16.7682 83.5781 16.3906 84.5938 16.3906C86.3542 16.3906 87.25 17.3984 87.2812 19.4141V25H85.3828V19.5234C85.3828 18.987 85.2656 18.5911 85.0312 18.3359C84.8021 18.0755 84.4245 17.9453 83.8984 17.9453C83.1328 17.9453 82.5625 18.2917 82.1875 18.9844V25H80.2891V16.5469H82.0781Z" fill="white"/>
<rect x="0.5" y="0.5" width="128" height="38" rx="19" stroke="white"/>
<path d="M22.4499 18.2521C23.9667 18.2521 25.1964 16.8526 25.1964 15.1261C25.1964 13.3996 24.7927 12 22.4499 12C20.1071 12 19.7033 13.3996 19.7033 15.1261C19.7033 16.8526 20.933 18.2521 22.4499 18.2521Z" fill="#87E389"/>
<path d="M27.3692 22.9195C27.3183 19.9119 26.8992 19.0549 23.6915 18.5125C23.6915 18.5125 23.24 19.0516 22.1876 19.0516C21.1352 19.0516 20.6836 18.5125 20.6836 18.5125C17.511 19.049 17.0663 19.8933 17.0079 22.8218C17.0031 23.0609 17.0009 23.0735 17 23.0457C17.0002 23.0977 17.0004 23.1939 17.0004 23.3617C17.0004 23.3617 17.7641 24.8043 22.1876 24.8043C26.6111 24.8043 27.3748 23.3617 27.3748 23.3617C27.3748 23.2539 27.3749 23.179 27.375 23.128C27.3741 23.1451 27.3724 23.1119 27.3692 22.9195Z" fill="#87E389"/>
</svg>
